<?xml version="1.0" standalone="no"?>
<!DOCTYPE svg PUBLIC "-//W3C//DTD SVG 20010904//EN"
 "http://www.w3.org/TR/2001/REC-SVG-20010904/DTD/svg10.dtd">
<svg version="1.0" xmlns="http://www.w3.org/2000/svg"
 width="519.000000pt" height="519.000000pt" viewBox="0 0 519.000000 519.000000"
 preserveAspectRatio="xMidYMid meet">

<g transform="translate(0.000000,519.000000) scale(0.100000,-0.100000)"
fill="#000000" stroke="none">
<path d="M1356 4799 c-511 -75 -818 -475 -820 -1069 0 -136 3 -168 27 -260 40
-157 75 -239 228 -537 77 -150 155 -313 175 -363 66 -173 94 -336 119 -720 25
-364 49 -500 130 -726 55 -154 174 -401 242 -501 185 -277 389 -408 608 -390
86 6 167 46 201 97 74 112 89 222 80 615 -9 419 14 683 67 778 40 71 167 128
250 112 121 -24 179 -81 205 -200 32 -146 36 -210 37 -665 1 -506 1 -505 60
-605 105 -181 384 -177 617 9 182 145 393 523 502 900 44 152 64 301 86 636
30 462 70 608 282 1006 235 444 289 640 259 944 -58 577 -395 921 -926 947
-192 9 -312 -14 -885 -168 -141 -38 -166 -42 -275 -42 -109 0 -134 4 -275 42
-352 95 -541 140 -641 155 -114 17 -257 19 -353 5z m479 -167 c354 -81 407
-100 730 -262 343 -171 421 -199 585 -207 125 -6 219 11 320 58 76 35 95 61
79 107 -17 51 -50 56 -127 24 -105 -45 -163 -55 -272 -49 -110 6 -231 42 -365
110 l-80 40 86 18 c47 9 195 46 330 83 376 102 418 109 609 110 130 1 180 -3
235 -17 94 -25 237 -95 307 -152 194 -154 308 -437 308 -766 0 -224 -37 -336
-260 -774 -227 -448 -249 -527 -285 -1043 -28 -403 -49 -525 -130 -747 -83
-230 -165 -388 -278 -540 -76 -101 -152 -167 -247 -213 -66 -32 -84 -37 -152
-37 -92 0 -120 16 -158 91 l-25 49 -1 450 c-1 447 -6 537 -39 697 -31 147
-120 251 -246 289 -182 55 -380 -11 -464 -155 -58 -100 -86 -312 -85 -656 0
-140 3 -300 6 -355 14 -219 -26 -367 -107 -399 -81 -33 -200 -9 -303 58 -148
99 -308 339 -429 646 -97 243 -128 399 -152 750 -40 596 -70 704 -331 1195
-101 190 -159 324 -192 445 -22 83 -25 115 -25 250 0 322 88 560 270 731 109
103 233 164 391 194 124 23 336 13 497 -23z"/>
<path d="M1364 4375 c-250 -54 -394 -261 -411 -590 -9 -168 35 -350 88 -369
37 -13 74 -1 87 29 10 21 7 41 -13 111 -57 196 -14 463 94 587 51 57 139 96
251 108 52 6 102 15 112 20 25 13 24 80 0 102 -23 21 -118 22 -208 2z"/>
</g>
</svg>
